name Walk1.mot
datacolumns 19
datarows 12
range 1.63600000 1.64700000
endheader

                time	   L_ground_force_vx	   L_ground_force_vy	   L_ground_force_vz	   L_ground_force_px	   L_ground_force_py	   L_ground_force_pz	   R_ground_force_vx	   R_ground_force_vy	   R_ground_force_vz	   R_ground_force_px	   R_ground_force_py	   R_ground_force_pz	   L_ground_torque_x	   L_ground_torque_y	   L_ground_torque_z	   R_ground_torque_x	   R_ground_torque_y	   R_ground_torque_z	
          1.63600000	         -7.06771895	         55.90387510	         -9.47550956	          0.00161616	          0.00000000	          0.00096159	          0.00000000	          0.00000016	          0.00000001	          0.00000000	          0.00000000	          0.00000000	          0.00000000	          0.17008786	          0.00000000	          0.00000000	         -0.00000001	          0.00000000	
          1.63700000	         -7.46323313	         66.14884390	        -10.36573726	         -0.01545019	          0.00000000	          0.00021161	          0.00000000	          0.00000018	          0.00000001	          0.00000000	          0.00000000	          0.00000000	          0.00000000	          0.17526886	          0.00000000	          0.00000000	         -0.00000001	          0.00000000	
          1.63800000	         -7.91962559	         76.51285374	        -11.26790559	         -0.03244450	          0.00000000	         -0.00053589	          0.00000000	          0.00000021	          0.00000001	          0.00000000	          0.00000000	          0.00000000	          0.00000000	          0.18085534	          0.00000000	          0.00000000	         -0.00000001	          0.00000000	
          1.63900000	         -8.43973208	         86.97412390	        -12.17982943	         -0.04930844	          0.00000000	         -0.00127859	         -0.00000000	          0.00000024	          0.00000001	          0.00000000	          0.00000000	          0.00000000	          0.00000000	          0.18685244	          0.00000000	          0.00000000	         -0.00000001	          0.00000000	
          1.64000000	         -9.02622813	         97.50992301	        -13.09917859	         -0.06598747	          0.00000000	         -0.00201429	         -0.00000000	          0.00000027	          0.00000002	          0.00000000	          0.00000000	          0.00000000	          0.00000000	          0.19326162	          0.00000000	          0.00000000	         -0.00000001	          0.00000000	
          1.64100000	         -9.68158747	        108.09669969	        -14.02348615	         -0.08243204	          0.00000000	         -0.00274095	         -0.00000001	          0.00000030	          0.00000002	          0.00000000	          0.00000000	          0.00000000	          0.00000000	          0.20008001	          0.00000000	          0.00000000	         -0.00000001	          0.00000000	
          1.64200000	        -10.40803141	        118.71035241	        -14.95015487	         -0.09859773	          0.00000000	         -0.00345675	         -0.00000001	          0.00000033	          0.00000002	          0.00000000	          0.00000000	          0.00000000	          0.00000000	          0.20729979	          0.00000000	          0.00000000	         -0.00000001	          0.00000000	
          1.64300000	        -11.20746838	        129.32664503	        -15.87646110	         -0.11444496	          0.00000000	         -0.00416009	         -0.00000001	          0.00000037	          0.00000002	          0.00000000	          0.00000000	          0.00000000	          0.00000000	          0.21490777	          0.00000000	          0.00000000	         -0.00000001	          0.00000000	
          1.64400000	        -12.08142405	        139.92174263	        -16.79955660	         -0.12993871	          0.00000000	         -0.00484959	         -0.00000001	          0.00000041	          0.00000002	          0.00000000	          0.00000000	          0.00000000	          0.00000000	          0.22288512	          0.00000000	          0.00000000	         -0.00000001	          0.00000000	
          1.64500000	        -13.03096625	        150.47280155	        -17.71646984	         -0.14504826	          0.00000000	         -0.00552410	         -0.00000002	          0.00000044	          0.00000003	          0.00000000	          0.00000000	          0.00000000	          0.00000000	          0.23120731	          0.00000000	          0.00000000	         -0.00000001	          0.00000000	
          1.64600000	        -14.05663184	        160.95852337	        -18.62411003	         -0.15974695	          0.00000000	         -0.00618267	         -0.00000002	          0.00000048	          0.00000003	          0.00000000	          0.00000000	          0.00000000	          0.00000000	          0.23984410	          0.00000000	          0.00000000	         -0.00000001	          0.00000000	
          1.64700000	        -15.15836461	        171.35958569	        -19.51927779	         -0.17401192	          0.00000000	         -0.00682455	         -0.00000002	          0.00000053	          0.00000003	          0.00000000	          0.00000000	          0.00000000	          0.00000000	          0.24875950	          0.00000000	          0.00000000	         -0.00000001	          0.00000000	
